<?xml version="1.0" encoding="UTF-8" standalone="no"?>
<svg
   version="1.1"
   width="589"
   height="162"
   viewBox="0 0 589 162"
   id="svg166"
   sodipodi:docname="logo-park-patroller-dark.svg"
   xmlns:inkscape="http://www.inkscape.org/namespaces/inkscape"
   xmlns:sodipodi="http://sodipodi.sourceforge.net/DTD/sodipodi-0.dtd"
   xmlns="http://www.w3.org/2000/svg"
   xmlns:svg="http://www.w3.org/2000/svg">
  <defs
     id="defs170" />
  <sodipodi:namedview
     id="namedview168"
     pagecolor="#ffffff"
     bordercolor="#000000"
     borderopacity="0.25"
     inkscape:showpageshadow="2"
     inkscape:pageopacity="0.0"
     inkscape:pagecheckerboard="0"
     inkscape:deskcolor="#d1d1d1"
     showgrid="false" />
  <path
     fill="#000000"
     d="m 166.07144,7.6768911 h 29.26618 q 5.41403,0 7.2963,2.2584959 1.88226,2.269677 1.88226,8.9669 v 6.618957 q 0,5.154291 -1.96323,7.513413 -0.9816,1.17397 -2.58051,2.258496 -1.59891,1.095706 -3.89609,2.627459 l -18.11426,12.499991 v 19.018325 h 5.33308 v 6.160551 h -17.22373 v -6.160551 h 5.17118 V 13.926887 h -5.17118 z m 32.464,21.4668909 V 13.926887 h -20.57335 v 29.248641 z m 29.843,16.569758 h 14.58249 l -7.29631,-31.876099 z m 26.23025,23.725388 h 5.32296 v 6.160551 h -15.97901 v -6.160551 h 4.42231 l -4.09848,-18.023244 h -17.21361 l -4.09847,18.023244 h 4.50327 v 6.160551 h -15.97901 v -6.160551 h 5.16105 L 230.91848,7.6768911 h 9.66431 z m 54.49457,0 h 4.59435 v 6.160551 h -16.23199 v -6.160551 h 4.42231 l -14.01579,-24.899359 -8.69282,5.881034 v 19.018325 h 5.33309 v 6.160551 h -17.21362 v -6.160551 h 5.16106 V 13.837441 h -5.16106 V 7.6768911 h 29.26617 q 5.40392,0 7.29631,2.3032186 1.88226,2.3143993 1.88226,9.0116223 v 5.623878 q 0,3.432466 -0.57682,5.433807 -0.57682,1.99016 -2.04419,3.577816 -1.47748,1.576474 -3.93656,3.208853 -2.45908,1.632378 -6.23373,4.170391 z M 279.17932,13.837441 V 43.175528 L 299.76278,29.143782 V 13.837441 Z m 77.63832,55.601487 h 5.25214 v 6.160551 h -9.35061 L 332.14583,41.822666 v 27.616262 h 5.33307 v 6.160551 h -17.21361 v -6.160551 h 5.16106 V 13.837441 h -5.16106 V 7.6768911 h 17.21361 v 6.1605499 h -5.65691 V 39.105763 L 352.71917,7.6768911 h 8.85474 v 6.1605499 h -5.495 l -17.04157,26.442292 z m -190.7462,13.95348 h 29.26618 q 5.41403,0 7.2963,2.269676 1.88226,2.258497 1.88226,8.966901 v 6.607775 q 0,5.16548 -1.96323,7.51341 -0.9816,1.17398 -2.58051,2.26969 -1.59891,1.08452 -3.89609,2.62745 l -18.11426,12.4888 v 19.01833 h 5.33308 v 6.16055 h -17.22373 v -6.16055 h 5.17118 V 89.642404 h -5.17118 z m 32.464,21.466892 V 89.642404 h -20.57335 v 29.248636 z m 29.843,16.56976 h 14.58249 l -7.29631,-31.876101 z m 26.23025,23.72538 h 5.32296 v 6.16055 h -15.97901 v -6.16055 h 4.42231 l -4.09848,-18.02324 h -17.21361 l -4.09847,18.02324 h 4.50327 v 6.16055 h -15.97901 v -6.16055 h 5.16105 l 14.26878,-61.762032 h 9.66431 z m 20.48228,6.16055 v -6.16055 h 5.17116 V 89.552959 h -10.33221 v 10.688721 h -5.8998 V 83.392408 h 39.26444 v 16.849272 h -5.98074 V 89.552959 H 286.9816 v 55.601481 h 5.32297 v 6.16055 z m 77.38533,-6.16055 h 4.59435 v 6.16055 h -16.23201 v -6.16055 h 4.42231 l -14.01578,-24.89936 -8.69283,5.88103 v 19.01833 h 5.33309 v 6.16055 h -17.21361 v -6.16055 h 5.16106 V 89.552959 h -5.16106 v -6.160551 h 29.26617 q 5.40393,0 7.29631,2.314399 1.88226,2.303219 1.88226,9.011623 v 5.6127 q 0,3.44364 -0.57682,5.4338 -0.57682,1.99017 -2.04418,3.57781 -1.47748,1.58767 -3.93657,3.20886 -2.4591,1.63238 -6.23373,4.17039 z M 322.55234,89.552959 V 118.89104 L 343.13583,104.8593 V 89.552959 Z m 49.75857,-6.160551 h 15.98912 q 4.99914,0 7.2457,3.029962 2.25669,3.041144 2.25669,9.011623 v 43.571077 q 0,6.51833 -1.96321,9.41413 -1.97334,2.89579 -7.13438,2.89579 h -15.73614 q -7.87313,0 -9.25952,-6.51832 -0.49587,-1.99016 -0.49587,-4.43873 V 95.433993 q 0,-6.059925 1.8013,-8.776828 2.05431,-3.264757 7.29631,-3.264757 m -2.54005,6.160551 v 55.601481 h 21.47401 V 89.552959 Z m 38.28283,61.762031 v -6.16055 h 5.16104 V 89.552959 h -5.16104 v -6.160551 h 17.2136 v 6.160551 h -5.33308 v 55.601481 h 17.2136 v -10.58809 h 5.57596 v 16.74864 z m 43.28195,0 v -6.16055 h 5.17116 V 89.552959 h -5.17116 v -6.160551 h 17.21361 v 6.160551 h -5.32296 v 55.601481 h 17.2136 v -10.58809 h 5.57597 v 16.74864 z m 66.72928,-44.64442 h 5.57596 v 19.01832 h -5.57596 v -6.42888 h -11.55669 v 25.89443 h 20.97813 v -10.58809 h 5.57596 v 16.74864 h -38.44473 v -6.16055 h 5.17117 V 89.552959 h -5.17117 v -6.160551 h 38.44473 v 16.759832 h -5.57596 V 89.552959 h -20.97813 v 23.546501 h 11.55669 z m 66.22332,38.48387 h 4.58422 v 6.16055 h -16.23199 v -6.16055 h 4.43244 l -14.0158,-24.89936 -8.69282,5.88103 v 19.01833 h 5.33309 v 6.16055 h -17.21362 v -6.16055 h 5.16104 V 89.552959 h -5.16104 v -6.160551 h 29.25606 q 5.41403,0 7.2963,2.314399 1.89238,2.303219 1.89238,9.011623 v 5.6127 q 0,3.44364 -0.57683,5.4338 -0.57681,1.99017 -2.0543,3.57781 -1.46735,1.58767 -3.92643,3.20886 -2.45909,1.63238 -6.23373,4.17039 z M 554.36429,89.552959 V 118.89104 L 574.93764,104.8593 V 89.552959 Z M 115.6551,82.710387 a 45.285653,50.033512 0 0 0 -32.01872,-48.262493 45.741039,50.536642 0 0 0 -27.07829,0 45.285653,50.033512 0 0 0 -32.38506,48.262493 45.741039,50.536642 0 0 0 1.097987,11.067748 45.741039,50.536642 0 0 0 13.448068,25.874315 45.741039,50.536642 0 0 0 62.253355,0 45.741039,50.536642 0 0 0 13.72231,-25.874315 45.741039,50.536642 0 0 0 0.96035,-11.067748 m -9.1482,0 v 2.476519 L 88.530267,75.68557 V 75.332261 A 18.316655,20.237017 0 0 0 84.963073,68.61044 v -0.252683 l 0.869282,-12.078481 0.686116,-9.803214 A 36.137444,39.926184 0 0 1 106.5069,82.710387 m -71.35602,12.684473 15.551952,-8.236801 0.274244,1.061045 0.457411,1.71847 0.549499,1.414355 0.686115,1.71847 0.639565,1.162789 1.006911,1.667039 0.731654,0.910106 1.325681,1.566412 0.229717,0.302997 -14.134183,10.714438 A 36.63331,40.474036 0 0 1 35.15088,95.395979 M 66.48349,93.626078 A 10.337272,11.421057 0 0 1 59.713413,80.183555 10.05898,11.113589 0 0 1 62.961834,74.067727 10.520439,11.623427 0 0 1 76.40889,73.714418 l 0.503962,0.404739 a 9.1482078,10.107328 0 0 1 3.201873,6.216454 9.1077291,10.062606 0 0 1 0.273232,2.374776 v 1.819096 a 10.524487,11.6279 0 0 1 -6.997773,9.146908 9.1482078,10.107328 0 0 1 -4.893885,0.455054 9.1077291,10.062606 0 0 1 -2.012809,-0.505367 M 97.358692,109.4445 83.178969,98.730055 l 0.366335,-0.453935 1.052448,-1.213103 0.959348,-1.263416 0.870293,-1.415473 0.777193,-1.364042 0.639565,-1.566413 0.595038,-1.516099 c 0,-0.505367 0.274244,-1.112477 0.411872,-1.668156 l 0.319782,-1.062165 1.829642,1.011851 13.722305,7.22607 A 36.63331,40.474036 0 0 1 97.358692,109.44338 M 77.232635,43.090555 76.54652,52.38952 75.860403,62.041795 a 19.672695,21.735229 0 0 0 -11.938209,0 l -0.640576,-9.197221 -0.686116,-9.754019 a 36.63331,40.474036 0 0 1 14.637133,0 m -23.556634,3.386625 1.509858,21.932008 v 0.252684 a 22.870519,25.268321 0 0 0 -2.01382,3.083629 v 0.252683 a 23.275306,25.715548 0 0 0 -1.325682,3.233451 v 0.304114 l -18.52512,9.600844 V 82.710387 A 36.137444,39.926184 0 0 1 53.676001,46.476062 m -4.116694,69.789758 16.329145,-12.33004 h 0.320795 a 27.323187,30.187817 0 0 0 3.476116,0.40473 h 0.228705 a 18.215458,20.125211 0 0 0 3.612733,-0.40473 h 0.320795 l 16.375696,12.38147 a 37.048217,40.932443 0 0 1 -40.663985,-0.0503 M 69.914068,11.959089 c -35.367335,0 -64.0374536,31.675964 -64.0374536,70.751298 0,39.075333 28.6701186,70.751293 64.0374536,70.751293 35.367332,0 64.037452,-31.67596 64.037452,-70.751293 0,-39.075334 -28.67012,-70.751298 -64.037452,-70.751298 m 0,131.395261 c -30.312545,0 -54.889247,-27.15338 -54.889247,-60.643963 0,-33.490588 24.576702,-60.64397 54.889247,-60.64397 30.312542,0 54.889242,27.153382 54.889242,60.64397 0,33.490583 -24.5767,60.643963 -54.889242,60.643963"
     id="path162"
     style="stroke-width:1.0637" />
</svg>
