<?xml version="1.0" encoding="UTF-8" standalone="no"?>
<svg
   version="1.1"
   width="589"
   height="162"
   viewBox="0 0 589 162"
   id="svg10"
   sodipodi:docname="logo-park-patroller.svg"
   xmlns:inkscape="http://www.inkscape.org/namespaces/inkscape"
   xmlns:sodipodi="http://sodipodi.sourceforge.net/DTD/sodipodi-0.dtd"
   xmlns="http://www.w3.org/2000/svg"
   xmlns:svg="http://www.w3.org/2000/svg">
  <defs
     id="defs14" />
  <sodipodi:namedview
     id="namedview12"
     pagecolor="#ffffff"
     bordercolor="#000000"
     borderopacity="0.25"
     inkscape:showpageshadow="2"
     inkscape:pageopacity="0.0"
     inkscape:pagecheckerboard="0"
     inkscape:deskcolor="#d1d1d1"
     showgrid="false" />
  <path
     fill="#ffffff"
     d="m 165.76,11.84 h 28.92 q 5.35,0 7.21,2.02 1.86,2.03 1.86,8.02 v 5.92 q 0,4.61 -1.94,6.72 -0.97,1.05 -2.55,2.02 -1.58,0.98 -3.85,2.35 l -17.9,11.18 v 17.01 h 5.27 v 5.51 h -17.02 v -5.51 h 5.11 V 17.43 h -5.11 z m 32.08,19.2 V 17.43 h -20.33 v 26.16 z m 29.49,14.82 h 14.41 l -7.21,-28.51 z m 25.92,21.22 h 5.26 v 5.51 h -15.79 v -5.51 h 4.37 l -4.05,-16.12 h -17.01 l -4.05,16.12 h 4.45 v 5.51 h -15.79 v -5.51 h 5.1 l 14.1,-55.24 h 9.55 z m 53.85,0 h 4.54 v 5.51 H 295.6 v -5.51 h 4.37 l -13.85,-22.27 -8.59,5.26 v 17.01 h 5.27 v 5.51 h -17.01 v -5.51 h 5.1 V 17.35 h -5.1 v -5.51 h 28.92 q 5.34,0 7.21,2.06 1.86,2.07 1.86,8.06 v 5.03 q 0,3.07 -0.57,4.86 -0.57,1.78 -2.02,3.2 -1.46,1.41 -3.89,2.87 -2.43,1.46 -6.16,3.73 z M 277.53,17.35 V 43.59 L 297.87,31.04 V 17.35 Z m 76.72,49.73 h 5.19 v 5.51 H 350.2 L 329.87,42.38 v 24.7 h 5.27 v 5.51 h -17.01 v -5.51 h 5.1 V 17.35 h -5.1 v -5.51 h 17.01 v 5.51 h -5.59 v 22.6 L 350.2,11.84 h 8.75 v 5.51 h -5.43 L 336.68,41 Z M 165.76,79.56 h 28.92 q 5.35,0 7.21,2.03 1.86,2.02 1.86,8.02 v 5.91 q 0,4.62 -1.94,6.72 -0.97,1.05 -2.55,2.03 -1.58,0.97 -3.85,2.35 l -17.9,11.17 v 17.01 h 5.27 v 5.51 h -17.02 v -5.51 h 5.11 V 85.15 h -5.11 z m 32.08,19.2 V 85.15 h -20.33 v 26.16 z m 29.49,14.82 h 14.41 l -7.21,-28.51 z m 25.92,21.22 h 5.26 v 5.51 h -15.79 v -5.51 h 4.37 l -4.05,-16.12 h -17.01 l -4.05,16.12 h 4.45 v 5.51 h -15.79 v -5.51 h 5.1 l 14.1,-55.24 h 9.55 z m 20.24,5.51 v -5.51 h 5.11 V 85.07 h -10.21 v 9.56 h -5.83 V 79.56 h 38.8 v 15.07 h -5.91 v -9.56 h -10.21 v 49.73 h 5.26 v 5.51 z m 76.47,-5.51 h 4.54 v 5.51 h -16.04 v -5.51 h 4.37 l -13.85,-22.27 -8.59,5.26 v 17.01 h 5.27 v 5.51 h -17.01 v -5.51 h 5.1 V 85.07 h -5.1 v -5.51 h 28.92 q 5.34,0 7.21,2.07 1.86,2.06 1.86,8.06 v 5.02 q 0,3.08 -0.57,4.86 -0.57,1.78 -2.02,3.2 -1.46,1.42 -3.89,2.87 -2.43,1.46 -6.16,3.73 z M 320.39,85.07 v 26.24 L 340.73,98.76 V 85.07 Z m 49.17,-5.51 h 15.8 q 4.94,0 7.16,2.71 2.23,2.72 2.23,8.06 v 38.97 q 0,5.83 -1.94,8.42 -1.95,2.59 -7.05,2.59 h -15.55 q -7.78,0 -9.15,-5.83 -0.49,-1.78 -0.49,-3.97 V 90.33 q 0,-5.42 1.78,-7.85 2.03,-2.92 7.21,-2.92 m -2.51,5.51 v 49.73 h 21.22 V 85.07 Z m 37.83,55.24 v -5.51 h 5.1 V 85.07 h -5.1 v -5.51 h 17.01 v 5.51 h -5.27 v 49.73 h 17.01 v -9.47 h 5.51 v 14.98 z m 42.77,0 v -5.51 h 5.11 V 85.07 h -5.11 v -5.51 h 17.01 v 5.51 h -5.26 v 49.73 h 17.01 v -9.47 h 5.51 v 14.98 z m 65.94,-39.93 h 5.51 v 17.01 h -5.51 v -5.75 h -11.42 v 23.16 h 20.73 v -9.47 h 5.51 v 14.98 h -37.99 v -5.51 h 5.11 V 85.07 h -5.11 v -5.51 h 37.99 v 14.99 h -5.51 v -9.48 h -20.73 v 21.06 h 11.42 z m 65.44,34.42 h 4.53 v 5.51 h -16.04 v -5.51 h 4.38 l -13.85,-22.27 -8.59,5.26 v 17.01 h 5.27 v 5.51 h -17.01 v -5.51 h 5.1 V 85.07 h -5.1 v -5.51 h 28.91 q 5.35,0 7.21,2.07 1.87,2.06 1.87,8.06 v 5.02 q 0,3.08 -0.57,4.86 -0.57,1.78 -2.03,3.2 -1.45,1.42 -3.88,2.87 -2.43,1.46 -6.16,3.73 z M 549.46,85.07 v 26.24 L 569.79,98.76 V 85.07 Z M 115.94,78.95 A 44.75,44.75 0 0 0 84.3,35.784 a 45.2,45.2 0 0 0 -26.758,0 44.75,44.75 0 0 0 -32.002,43.166 45.2,45.2 0 0 0 1.085,9.899 45.2,45.2 0 0 0 13.289,23.142 45.2,45.2 0 0 0 61.517,0 45.2,45.2 0 0 0 13.56,-23.142 45.2,45.2 0 0 0 0.949,-9.899 m -9.04,0 v 2.215 L 89.136,72.667 V 72.351 A 18.1,18.1 0 0 0 85.611,66.339 V 66.113 L 86.47,55.31 87.148,46.542 A 35.71,35.71 0 0 1 106.9,78.95 m -70.512,11.345 15.368,-7.367 0.271,0.949 0.452,1.537 0.543,1.265 0.678,1.537 0.632,1.04 0.995,1.491 0.723,0.814 1.31,1.401 0.227,0.271 -13.967,9.583 A 36.2,36.2 0 0 1 36.388,90.296 M 67.35,88.713 A 10.215,10.215 0 0 1 60.66,76.69 9.94,9.94 0 0 1 63.87,71.22 10.396,10.396 0 0 1 77.158,70.904 l 0.498,0.362 a 9.04,9.04 0 0 1 3.164,5.56 9,9 0 0 1 0.27,2.124 v 1.627 a 10.4,10.4 0 0 1 -6.915,8.181 9.04,9.04 0 0 1 -4.836,0.407 9,9 0 0 1 -1.989,-0.452 m 30.51,14.148 -14.012,-9.583 0.362,-0.406 1.04,-1.085 0.948,-1.13 0.86,-1.266 0.768,-1.22 0.632,-1.401 0.588,-1.356 c 0,-0.452 0.271,-0.995 0.407,-1.492 l 0.316,-0.95 1.808,0.905 13.56,6.463 a 36.2,36.2 0 0 1 -7.277,12.52 m -19.888,-59.346 -0.678,8.317 -0.678,8.633 a 19.44,19.44 0 0 0 -11.797,0 l -0.633,-8.226 -0.678,-8.724 a 36.2,36.2 0 0 1 14.464,0 m -23.278,3.029 1.492,19.616 v 0.226 a 22.6,22.6 0 0 0 -1.99,2.758 v 0.226 a 23,23 0 0 0 -1.31,2.892 v 0.272 L 34.58,81.12 V 78.95 A 35.71,35.71 0 0 1 54.694,46.542 m -4.068,62.42 16.136,-11.028 h 0.317 a 27,27 0 0 0 3.435,0.362 h 0.226 a 18,18 0 0 0 3.57,-0.362 h 0.317 l 16.182,11.074 A 36.61,36.61 0 0 1 50.626,108.963 M 70.74,15.67 c -34.949,0 -63.28,28.331 -63.28,63.28 0,34.949 28.331,63.28 63.28,63.28 34.949,0 63.28,-28.331 63.28,-63.28 0,-34.949 -28.331,-63.28 -63.28,-63.28 m 0,117.52 c -29.954,0 -54.24,-24.286 -54.24,-54.24 0,-29.954 24.286,-54.24 54.24,-54.24 29.954,0 54.24,24.286 54.24,54.24 0,29.954 -24.286,54.24 -54.24,54.24"
     id="path6" />
</svg>
